FFmpeg version SVN-r25716, Copyright (c) 2000-2010 the FFmpeg developers  built on Nov 10 2010 12:23:18 with gcc 4.1.2 20080704 (Red Hat 4.1.2-48)  configuration: --enable-libmp3lame --enable-shared --disable-mmx --arch=x86_64  libavutil     50.33. 0 / 50.33. 0  libavcore      0.12. 1 /  0.12. 1  libavcodec    52.94. 4 / 52.94. 4  libavformat   52.84. 0 / 52.84. 0  libavdevice   52. 2. 2 / 52. 2. 2  libavfilter    1.59. 0 /  1.59. 0  libswscale     0.12. 0 /  0.12. 0Input #0, avi, from '/RAID10/data/converted_video_files/47585.avi':  Duration: 00:00:01.73, start: 0.000000, bitrate: 283103 kb/s    Stream #0.0: Video: msvideo1, rgb555le, 1024x1024, 30 tbr, 30 tbn, 30 tbc[buffer @ 0x12d46c20] w:1024 h:1024 pixfmt:rgb555le[ffsink @ 0x12d80fa0] auto-inserting filter 'auto-inserted scaler 0' between the filter 'src' and the filter 'out'[scale @ 0x12d812c0] w:1024 h:1024 fmt:rgb555le -> w:1024 h:1024 fmt:yuv420p flags:0x4Output #0, flv, to '/RAID10/data/converted_video_files/47585.flv':  Metadata:    encoder         : Lavf52.84.0    Stream #0.0: Video: flv, yuv420p, 1024x1024, q=2-31, 600 kb/s, 1k tbn, 24 tbcStream mapping:  Stream #0.0 -> #0.0Press [q] to stop encodingframe=    7 fps=  0 q=11.5 size=     663kB time=0.29 bitrate=18605.0kbits/s dup=0 drop=1    frame=   16 fps= 14 q=31.0 size=     703kB time=0.67 bitrate=8632.2kbits/s dup=0 drop=3    frame=   24 fps= 14 q=31.0 size=     711kB time=1.00 bitrate=5823.6kbits/s dup=0 drop=6    frame=   31 fps= 14 q=31.0 size=     743kB time=1.29 bitrate=4709.7kbits/s dup=0 drop=7    frame=   40 fps= 14 q=31.0 size=     777kB time=1.67 bitrate=3817.5kbits/s dup=0 drop=9    frame=   42 fps= 14 q=31.0 Lsize=     778kB time=1.75 bitrate=3643.7kbits/s dup=0 drop=10    video:778kB audio:0kB global headers:0kB muxing overhead 0.110780%